<?xml version="1.0" encoding="UTF-8"?>
<svg id="Calque_1" xmlns="http://www.w3.org/2000/svg" viewBox="0 0 800.74 525.46">
  <defs>
    <style>
      .cls-1 {
        fill: #eb5d0f;
      }

      .cls-2 {
        fill: #fff;
      }
    </style>
  </defs>
  <g>
    <polygon class="cls-1" points="191.25 251.09 60.51 149.42 160.71 17.55 64.05 30.19 0 114.24 11.12 199.29 94.59 263.73 191.25 251.09"/>
    <path class="cls-1" d="M258.56,242.31l52.06-67.7L288.01,0l-59.49,76.73,11.91,98.22-93.18,12.9,75.96,59.09s35.34-4.61,35.34-4.62Z"/>
  </g>
  <g>
    <path class="cls-2" d="M88.53,368.17l28.37-3.71,3.54,27.07-35.55,4.65c-24.13,3.16-46.26-13.85-49.41-37.99-3.16-24.13,13.85-46.26,37.99-49.41l35.55-4.65,3.54,27.07-28.37,3.71c-9.13,1.19-15.65,9.68-14.46,18.81,1.19,9.13,9.68,15.65,18.81,14.46Z"/>
    <path class="cls-2" d="M174.11,364.61l-7.83,1.02,2.56,19.57-34.24,4.48-11.45-87.56,51.04-6.67c18.75-2.45,36.08,10.87,38.54,29.62,1.32,10.11-2.05,19.84-8.39,27.14l20.28,25.71-36.36,4.76-14.14-18.05ZM162.74,338.56l9.62-1.26c3.91-.51,6.44-3.99,5.95-7.74-.51-3.91-3.83-6.46-7.74-5.95l-9.62,1.26,1.79,13.7Z"/>
    <path class="cls-2" d="M258.17,310.53l.92,7.02,36.2-4.73,2.93,22.43-36.2,4.73.87,6.67,45-5.89,3.38,25.81-79.25,10.36-11.43-87.4,79.25-10.36,3.33,25.48-45,5.89Z"/>
    <path class="cls-2" d="M379.16,268.8l39.8,83.69-34.24,4.48-10.52-20.82h0l-22.91,25.19-34.24,4.48,16.94-91.11,45.17-5.91ZM369.17,324.34l-7.8-16.56-3.45,18.03,11.25-1.47Z"/>
    <path class="cls-2" d="M492.12,253.19l6.36,48.66c3.06,23.42-13.39,44.82-36.81,47.89-23.41,3.06-44.82-13.39-47.88-36.81l-.93-7.14,34.87-4.56.93,7.14c.54,4.15,4.3,7.04,8.45,6.5,3.99-.52,6.87-4.28,6.33-8.43l-6.36-48.66,35.04-4.58Z"/>
    <path class="cls-2" d="M686.47,227.78l6.23,47.66c3.13,23.91-13.76,45.88-37.68,49.01-23.91,3.13-45.88-13.76-49.01-37.68l-6.23-47.66,34.87-4.56,6.93,52.98c.61,4.65,4.93,7.97,9.58,7.36,4.65-.61,7.81-4.91,7.2-9.56l-6.93-52.98,35.04-4.58Z"/>
    <path class="cls-2" d="M764.52,262.84l36.21,40.53-36.87,4.82-14.24-15.87-9.68,19-36.87,4.82,24.57-48.48-36.21-40.53,36.87-4.82,14.24,15.87,9.68-19,36.87-4.82-24.57,48.48Z"/>
    <path class="cls-2" d="M544.3,272.76l.93,7.15,36.87-4.82,2.99,22.84-36.87,4.82.89,6.79,45.84-5.99,3.44,26.29-80.71,10.55-11.64-89.01,80.71-10.55,3.39,25.95-45.84,5.99Z"/>
  </g>
  <g>
    <path class="cls-2" d="M54.36,448.13l-2.76-21.11,4.22-.55,4.22-.55,2.21,16.89,2.21,16.89,8.45-1.1,8.44-1.1.55,4.22.55,4.22-12.67,1.66-12.67,1.66-2.76-21.11Z"/>
    <path class="cls-2" d="M72.97,432.81l-1.1-8.45,4.22-.55,4.22-.55,1.1,8.45,1.1,8.44-4.22.55-4.22.55-1.1-8.44Z"/>
    <path class="cls-2" d="M106.72,441.28l-2.76-21.11,12.67-1.66,12.67-1.66.55,4.22.55,4.22-8.45,1.1-8.44,1.1.55,4.22.55,4.22,4.22-.55,4.22-.55.55,4.22.55,4.22-4.22.55-4.22.55.55,4.22.55,4.22,8.45-1.1,8.44-1.1.55,4.22.55,4.22-12.67,1.66-12.67,1.66-2.76-21.11Z"/>
    <path class="cls-2" d="M140.5,436.87l-2.76-21.11,12.67-1.66,12.67-1.66.55,4.22.55,4.22-8.45,1.1-8.45,1.1,1.66,12.67,1.66,12.67,8.44-1.1,8.45-1.1.55,4.22.55,4.22-12.67,1.66-12.67,1.66-2.76-21.11Z"/>
    <path class="cls-2" d="M174.28,432.45l-2.76-21.11,12.67-1.66,12.67-1.66,2.76,21.11,2.76,21.11-12.67,1.66-12.67,1.66-2.76-21.11ZM191.17,430.24l-1.66-12.67-4.22.55-4.22.55,1.66,12.67,1.66,12.67,4.22-.55,4.22-.55-1.66-12.67Z"/>
    <path class="cls-2" d="M208.06,428.03l-2.76-21.11,4.22-.55,4.22-.55,2.21,16.89,2.21,16.89,8.45-1.1,8.45-1.1.55,4.22.55,4.22-12.67,1.66-12.67,1.66-2.76-21.11Z"/>
    <path class="cls-2" d="M241.84,423.62l-2.76-21.11,12.67-1.66,12.67-1.66.55,4.22.55,4.22-8.45,1.1-8.45,1.1.55,4.22.55,4.22,4.22-.55,4.22-.55.55,4.22.55,4.22-4.22.55-4.22.55.55,4.22.55,4.22,8.44-1.1,8.45-1.1.55,4.22.55,4.22-12.67,1.66-12.67,1.66-2.76-21.11Z"/>
    <path class="cls-2" d="M300.95,415.89l-2.76-21.11,8.45-1.1,8.44-1.1.55,4.22.55,4.22,4.22-.55,4.22-.55,1.66,12.67,1.66,12.67-4.22.55-4.22.55.55,4.22.55,4.22-8.45,1.1-8.45,1.1-2.76-21.11ZM317.84,413.68l-1.66-12.67-4.22.55-4.22.55,1.66,12.67,1.66,12.67,4.22-.55,4.22-.55-1.66-12.67Z"/>
    <path class="cls-2" d="M334.73,411.47l-2.76-21.11,12.67-1.66,12.67-1.66.55,4.22.55,4.22-8.45,1.1-8.45,1.1.55,4.22.55,4.22,4.22-.55,4.22-.55.55,4.22.55,4.22-4.22.55-4.22.55.55,4.22.55,4.22,8.44-1.1,8.45-1.1.55,4.22.55,4.22-12.67,1.66-12.67,1.66-2.76-21.11Z"/>
    <path class="cls-2" d="M376.4,401.72l-2.21-16.89,8.44-1.1,8.45-1.1.55,4.22.55,4.22-4.22.55-4.22.55,2.21,16.89,2.21,16.89-8.44,1.1-8.44,1.1-.55-4.22-.55-4.22,4.22-.55,4.22-.55-2.21-16.89Z"/>
    <path class="cls-2" d="M427.62,399.32l-2.76-21.11,21.11-2.76,21.11-2.76,2.76,21.11,2.76,21.11-4.22.55-4.22.55-2.21-16.89-2.21-16.89-4.22.55-4.22.55,1.66,12.67,1.66,12.67-4.22.55-4.22.55-1.66-12.67-1.66-12.67-4.22.55-4.22.55,2.21,16.89,2.21,16.89-4.22.55-4.22.55-2.76-21.11Z"/>
    <path class="cls-2" d="M478.29,392.7l-2.76-21.11,12.67-1.66,12.67-1.66.55,4.22.55,4.22-8.44,1.1-8.45,1.1.55,4.22.55,4.22,4.22-.55,4.22-.55.55,4.22.55,4.22-4.22.55-4.22.55.55,4.22.55,4.22,8.45-1.1,8.44-1.1.55,4.22.55,4.22-12.67,1.66-12.67,1.66-2.76-21.11Z"/>
    <path class="cls-2" d="M509.87,371.39l-.55-4.22,12.67-1.66,12.67-1.66.55,4.22.55,4.22-4.22.55-4.22.55,2.21,16.89,2.21,16.89-4.22.55-4.22.55-2.21-16.89-2.21-16.89-4.22.55-4.22.55-.55-4.22Z"/>
    <path class="cls-2" d="M543.65,366.97l-.55-4.22,12.67-1.66,12.67-1.66.55,4.22.55,4.22-4.22.55-4.22.55,1.66,12.67,1.66,12.67,4.22-.55,4.22-.55.55,4.22.55,4.22-12.67,1.66-12.67,1.66-.55-4.22-.55-4.22,4.22-.55,4.22-.55-1.66-12.67-1.66-12.67-4.22.55-4.22.55-.55-4.22Z"/>
    <path class="cls-2" d="M579.63,379.44l-2.76-21.11,12.67-1.66,12.67-1.66.55,4.22.55,4.22-8.44,1.1-8.45,1.1.55,4.22.55,4.22,4.22-.55,4.22-.55.55,4.22.55,4.22-4.22.55-4.22.55.55,4.22.55,4.22,8.45-1.1,8.44-1.1.55,4.22.55,4.22-12.67,1.66-12.67,1.66-2.76-21.11Z"/>
    <path class="cls-2" d="M613.41,375.03l-2.76-21.11,12.67-1.66,12.67-1.66,1.1,8.45,1.1,8.44-4.22.55-4.22.55.55,4.22.55,4.22,4.22-.55,4.22-.55,1.1,8.45,1.1,8.44-4.22.55-4.22.55-1.1-8.44-1.1-8.45-4.22.55-4.22.55,1.1,8.45,1.1,8.44-4.22.55-4.22.55-2.76-21.11ZM629.2,364.37l-.55-4.22-4.22.55-4.22.55.55,4.22.55,4.22,4.22-.55,4.22-.55-.55-4.22Z"/>
    <path class="cls-2" d="M655.09,365.28l-2.21-16.89,8.45-1.1,8.45-1.1.55,4.22.55,4.22-4.22.55-4.22.55,2.21,16.89,2.21,16.89-8.45,1.1-8.45,1.1-.55-4.22-.55-4.22,4.22-.55,4.22-.55-2.21-16.89Z"/>
    <path class="cls-2" d="M61.71,504.35l-2.76-21.11,8.45-1.1,8.45-1.1.55,4.22.55,4.22,4.22-.55,4.22-.55,1.66,12.67,1.66,12.67-4.22.55-4.22.55.55,4.22.55,4.22-8.45,1.1-8.45,1.1-2.76-21.11ZM78.6,502.14l-1.66-12.67-4.22.55-4.22.55,1.66,12.67,1.66,12.67,4.22-.55,4.22-.55-1.66-12.67Z"/>
    <path class="cls-2" d="M95.49,499.93l-2.76-21.11,4.22-.55,4.22-.55,2.21,16.89,2.21,16.89,4.22-.55,4.22-.55-2.21-16.89-2.21-16.89,4.22-.55,4.22-.55,2.76,21.11,2.76,21.11-12.67,1.66-12.67,1.66-2.76-21.11Z"/>
    <path class="cls-2" d="M170.94,485.77l-2.21-16.89,4.22-.55,4.22-.55,2.76,21.11,2.76,21.11-12.67,1.66-12.67,1.66-1.1-8.44-1.1-8.45,4.22-.55,4.22-.55.55,4.22.55,4.22,4.22-.55,4.22-.55-2.21-16.89Z"/>
    <path class="cls-2" d="M188.38,487.78l-2.76-21.11,12.67-1.66,12.67-1.66.55,4.22.55,4.22-8.45,1.1-8.45,1.1.55,4.22.55,4.22,4.22-.55,4.22-.55.55,4.22.55,4.22-4.22.55-4.22.55.55,4.22.55,4.22,8.44-1.1,8.45-1.1.55,4.22.55,4.22-12.67,1.66-12.67,1.66-2.76-21.11Z"/>
    <path class="cls-2" d="M222.16,483.36l-2.76-21.11,4.22-.55,4.22-.55,2.21,16.89,2.21,16.89,4.22-.55,4.22-.55-2.21-16.89-2.21-16.89,4.22-.55,4.22-.55,2.76,21.11,2.76,21.11-12.67,1.66-12.67,1.66-2.76-21.11Z"/>
    <path class="cls-2" d="M280.73,471.41l-2.21-16.89,4.22-.55,4.22-.55,1.66,12.67,1.66,12.67,4.22-.55,4.22-.55-1.66-12.67-1.66-12.67,4.22-.55,4.22-.55,2.21,16.89,2.21,16.89-4.22.55-4.22.55.55,4.22.55,4.22-4.22.55-4.22.55-.55-4.22-.55-4.22-4.22.55-4.22.55-2.21-16.89Z"/>
    <path class="cls-2" d="M312.85,454.33l-.55-4.22,12.67-1.66,12.67-1.66.55,4.22.55,4.22-4.22.55-4.22.55,1.66,12.67,1.66,12.67,4.22-.55,4.22-.55.55,4.22.55,4.22-12.67,1.66-12.67,1.66-.55-4.22-.55-4.22,4.22-.55,4.22-.55-1.66-12.67-1.66-12.67-4.22.55-4.22.55-.55-4.22Z"/>
    <path class="cls-2" d="M348.84,466.8l-2.76-21.11,8.45-1.1,8.44-1.1.55,4.22.55,4.22,4.22-.55,4.22-.55,1.66,12.67,1.66,12.67-4.22.55-4.22.55.55,4.22.55,4.22-8.44,1.1-8.45,1.1-2.76-21.11ZM365.73,464.59l-1.66-12.67-4.22.55-4.22.55,1.66,12.67,1.66,12.67,4.22-.55,4.22-.55-1.66-12.67Z"/>
    <path class="cls-2" d="M382.62,462.38l-2.76-21.11,12.67-1.66,12.67-1.66.55,4.22.55,4.22-8.45,1.1-8.44,1.1.55,4.22.55,4.22,4.22-.55,4.22-.55.55,4.22.55,4.22-4.22.55-4.22.55.55,4.22.55,4.22,8.45-1.1,8.45-1.1.55,4.22.55,4.22-12.67,1.66-12.67,1.66-2.76-21.11Z"/>
    <path class="cls-2" d="M416.4,457.97l-2.76-21.11,12.67-1.66,12.67-1.66,2.76,21.11,2.76,21.11-12.67,1.66-12.67,1.66-2.76-21.11ZM433.29,455.76l-1.66-12.67-4.22.55-4.22.55,1.66,12.67,1.66,12.67,4.22-.55,4.22-.55-1.66-12.67Z"/>
  </g>
</svg>